<svg width="238" height="577" viewBox="0 0 238 577" fill="none" xmlns="http://www.w3.org/2000/svg">
<path d="M47.644 -5.98344C26.1187 -1.33988 8.93822 16.1463 2.53111 36.9108C-4.10356 58.4219 2.60222 80.9997 19.164 96.0752C35.1569 110.617 58.9862 117.48 79.6796 109.529C99.036 102.091 115.854 80.8788 106.51 59.6735C98.6164 41.7677 75.2209 31.3001 56.9453 39.1152C38.6698 46.9303 29.788 68.8041 33.1302 87.6912C37.3542 111.521 60.508 124.669 81.6778 131.332C107.32 139.453 137.194 140.648 158.2 159.336C174.762 174.07 182.883 197.025 181.233 218.948C180.479 229.934 176.996 240.559 171.1 249.86C164.579 259.951 153.45 268.591 141.176 269.771C127.523 271.087 117.71 260.612 116.721 247.464C115.648 233.007 124.408 220.37 132.736 209.398C148.643 188.449 169.002 167.592 195.427 161.135C218.83 155.446 246.976 161.889 259.384 184.168C273.45 209.426 263.438 239.57 248.526 261.857C240.433 273.945 230.812 284.975 221.34 295.99C211.712 307.19 201.998 318.333 192.896 329.988C175.672 352.089 160.647 376.345 154.168 403.894C148.088 429.736 149.902 457.526 164.245 480.417C177.571 501.75 199.089 516.804 221.973 526.454C250.56 538.543 281.635 543.293 311.928 549.081L409.095 567.656L455.687 576.559C456.689 576.751 457.109 575.215 456.113 575.016L360.113 556.662C328.881 550.696 297.429 545.412 266.41 538.415C238.798 532.178 211.1 523.097 188.75 505.128C178.851 497.17 170.147 487.62 163.825 476.555C157.039 464.469 153.183 450.958 152.568 437.11C149.475 376.872 194.09 330.713 230.165 288.125C247.345 267.83 265.009 245.231 267.37 217.725C268.401 205.835 266.517 193.405 260.551 182.945C255.054 173.506 246.558 166.176 236.416 162.123C214.528 153.128 189.873 158.013 170.403 170.408C159.523 177.355 150.044 186.301 141.582 195.972C132.942 205.857 123.904 216.715 118.656 228.84C114.19 239.165 113.173 251.887 119.758 261.601C125.646 270.276 136.071 273.021 145.934 270.539C167.416 265.135 179.825 243.382 182.449 222.717C185.045 202.223 179.05 180.498 165.653 164.683C148.586 144.566 121.948 139.737 97.5924 133.949C74.524 128.473 46.2004 119.236 36.7924 94.9232C29.276 75.5028 37.34 49.7677 56.8956 40.8788C76.6502 31.8832 103.573 45.8566 107.185 67.3961C111.523 93.2094 83.3204 111.556 60.5293 111.293C37.7382 111.03 15.452 96.3597 6.05822 75.581C-3.70533 53.949 3.14978 28.349 19.3133 11.7517C27.0885 3.64656 37.086 -1.97938 48.0493 -4.41899C49.0662 -4.63944 48.6253 -6.17544 47.644 -5.98344Z" fill="#D1ECFD"/>
</svg>
